<svg width="86" height="30" viewBox="0 0 86 30" fill="none" xmlns="http://www.w3.org/2000/svg">
<path d="M9.8 6H12.1V20H10.3L3.7 10.5V20H1.4V6H3.2L9.8 15.5V6ZM22.6761 10H24.8361V20H22.6761V18.56C21.8628 19.6933 20.6961 20.26 19.1761 20.26C17.8028 20.26 16.6294 19.7533 15.6561 18.74C14.6828 17.7133 14.1961 16.4667 14.1961 15C14.1961 13.52 14.6828 12.2733 15.6561 11.26C16.6294 10.2467 17.8028 9.74 19.1761 9.74C20.6961 9.74 21.8628 10.3 22.6761 11.42V10ZM17.2561 17.3C17.8561 17.9 18.6094 18.2 19.5161 18.2C20.4228 18.2 21.1761 17.9 21.7761 17.3C22.3761 16.6867 22.6761 15.92 22.6761 15C22.6761 14.08 22.3761 13.32 21.7761 12.72C21.1761 12.1067 20.4228 11.8 19.5161 11.8C18.6094 11.8 17.8561 12.1067 17.2561 12.72C16.6561 13.32 16.3561 14.08 16.3561 15C16.3561 15.92 16.6561 16.6867 17.2561 17.3ZM32.9338 12.08H30.4538V16.88C30.4538 17.2933 30.5471 17.5933 30.7338 17.78C30.9204 17.9533 31.1938 18.0533 31.5538 18.08C31.9271 18.0933 32.3871 18.0867 32.9338 18.06V20C31.2804 20.2 30.0938 20.06 29.3738 19.58C28.6538 19.0867 28.2938 18.1867 28.2938 16.88V12.08H26.4538V10H28.2938V7.84L30.4538 7.2V10H32.9338V12.08ZM40.0041 12.08H37.5241V16.88C37.5241 17.2933 37.6174 17.5933 37.8041 17.78C37.9907 17.9533 38.2641 18.0533 38.6241 18.08C38.9974 18.0933 39.4574 18.0867 40.0041 18.06V20C38.3507 20.2 37.1641 20.06 36.4441 19.58C35.7241 19.0867 35.3641 18.1867 35.3641 16.88V12.08H33.5241V10H35.3641V7.84L37.5241 7.2V10H40.0041V12.08ZM49.473 10H51.633V20H49.473V18.56C48.6596 19.6933 47.493 20.26 45.973 20.26C44.5996 20.26 43.4263 19.7533 42.453 18.74C41.4796 17.7133 40.993 16.4667 40.993 15C40.993 13.52 41.4796 12.2733 42.453 11.26C43.4263 10.2467 44.5996 9.74 45.973 9.74C47.493 9.74 48.6596 10.3 49.473 11.42V10ZM44.053 17.3C44.653 17.9 45.4063 18.2 46.313 18.2C47.2196 18.2 47.973 17.9 48.573 17.3C49.173 16.6867 49.473 15.92 49.473 15C49.473 14.08 49.173 13.32 48.573 12.72C47.973 12.1067 47.2196 11.8 46.313 11.8C45.4063 11.8 44.653 12.1067 44.053 12.72C43.453 13.32 43.153 14.08 43.153 15C43.153 15.92 43.453 16.6867 44.053 17.3ZM56.032 12.76C56.032 13.0933 56.212 13.36 56.572 13.56C56.9454 13.7467 57.392 13.9133 57.912 14.06C58.4454 14.1933 58.9787 14.3533 59.512 14.54C60.0454 14.7267 60.492 15.0467 60.852 15.5C61.2254 15.94 61.412 16.5 61.412 17.18C61.412 18.14 61.0387 18.8933 60.292 19.44C59.5587 19.9867 58.632 20.26 57.512 20.26C56.5254 20.26 55.6787 20.0533 54.972 19.64C54.2654 19.2267 53.752 18.6533 53.432 17.92L55.292 16.84C55.6387 17.8 56.3787 18.28 57.512 18.28C58.6454 18.28 59.212 17.9067 59.212 17.16C59.212 16.84 59.0254 16.58 58.652 16.38C58.292 16.18 57.8454 16.0133 57.312 15.88C56.792 15.7333 56.2654 15.5667 55.732 15.38C55.1987 15.1933 54.7454 14.8867 54.372 14.46C54.012 14.02 53.832 13.4667 53.832 12.8C53.832 11.88 54.1787 11.14 54.872 10.58C55.5787 10.02 56.452 9.74 57.492 9.74C58.3187 9.74 59.052 9.92667 59.692 10.3C60.3454 10.66 60.8454 11.1667 61.192 11.82L59.372 12.84C59.0254 12.08 58.3987 11.7 57.492 11.7C57.0787 11.7 56.732 11.7933 56.452 11.98C56.172 12.1533 56.032 12.4133 56.032 12.76ZM68.4536 9.74C69.6003 9.74 70.5269 10.1067 71.2336 10.84C71.9403 11.5733 72.2936 12.58 72.2936 13.86V20H70.1336V14.08C70.1336 13.3333 69.9336 12.76 69.5336 12.36C69.1336 11.96 68.5869 11.76 67.8936 11.76C67.1336 11.76 66.5203 12 66.0536 12.48C65.5869 12.9467 65.3536 13.6667 65.3536 14.64V20H63.1936V6H65.3536V11.28C66.0069 10.2533 67.0403 9.74 68.4536 9.74ZM82.5394 10H84.6994V20H82.5394V18.56C81.726 19.6933 80.5594 20.26 79.0394 20.26C77.666 20.26 76.4927 19.7533 75.5194 18.74C74.546 17.7133 74.0594 16.4667 74.0594 15C74.0594 13.52 74.546 12.2733 75.5194 11.26C76.4927 10.2467 77.666 9.74 79.0394 9.74C80.5594 9.74 81.726 10.3 82.5394 11.42V10ZM77.1194 17.3C77.7194 17.9 78.4727 18.2 79.3794 18.2C80.286 18.2 81.0394 17.9 81.6394 17.3C82.2394 16.6867 82.5394 15.92 82.5394 15C82.5394 14.08 82.2394 13.32 81.6394 12.72C81.0394 12.1067 80.286 11.8 79.3794 11.8C78.4727 11.8 77.7194 12.1067 77.1194 12.72C76.5194 13.32 76.2194 14.08 76.2194 15C76.2194 15.92 76.5194 16.6867 77.1194 17.3Z" fill="black"/>
</svg>
