<svg width="6" height="7" viewBox="0 0 6 7" fill="none" xmlns="http://www.w3.org/2000/svg">
<path d="M2.9437 0.850113C2.59241 0.848908 2.24433 0.916982 1.91938 1.05044C1.59443 1.1839 1.29898 1.38012 1.04995 1.62788C0.800908 1.87564 0.603169 2.17008 0.468042 2.49434C0.332914 2.8186 0.263052 3.16632 0.262451 3.51761V6.21261C0.262451 6.32202 0.305911 6.42694 0.38327 6.5043C0.460629 6.58165 0.565549 6.62511 0.674951 6.62511H1.63745C1.74685 6.62511 1.85177 6.58165 1.92913 6.5043C2.00649 6.42694 2.04995 6.32202 2.04995 6.21261V3.51761C2.04986 3.39267 2.0761 3.26911 2.12697 3.155C2.17783 3.04088 2.25217 2.93876 2.34515 2.8553C2.43812 2.77183 2.54764 2.7089 2.66657 2.67061C2.7855 2.63231 2.91116 2.61951 3.03537 2.63303C3.25812 2.66109 3.46283 2.76992 3.61067 2.93888C3.75852 3.10785 3.83921 3.32519 3.83745 3.5497V6.21261C3.83745 6.32202 3.88091 6.42694 3.95827 6.5043C4.03563 6.58165 4.14055 6.62511 4.24995 6.62511H5.21245C5.32185 6.62511 5.42677 6.58165 5.50413 6.5043C5.58149 6.42694 5.62495 6.32202 5.62495 6.21261V3.51761C5.62435 3.16632 5.55449 2.8186 5.41936 2.49434C5.28423 2.17008 5.08649 1.87564 4.83746 1.62788C4.58842 1.38012 4.29297 1.1839 3.96802 1.05044C3.64307 0.916982 3.29499 0.848908 2.9437 0.850113Z" fill="#AAAAAA"/>
</svg>
